<?xml version="1.0" standalone="no"?>
<!DOCTYPE svg PUBLIC "-//W3C//DTD SVG 20010904//EN"
 "http://www.w3.org/TR/2001/REC-SVG-20010904/DTD/svg10.dtd">
<svg version="1.0" xmlns="http://www.w3.org/2000/svg"
 width="4500.000000pt" height="3000.000000pt" viewBox="0 0 4500.000000 3000.000000"
 preserveAspectRatio="xMidYMid meet">

<g transform="translate(0.000000,3000.000000) scale(0.100000,-0.100000)"
fill="#000000" stroke="none">
<path d="M28402 24851 c-9 -5 6 -14 45 -25 32 -9 89 -29 127 -43 88 -33 133
-47 293 -88 73 -19 159 -45 191 -58 32 -13 75 -27 95 -31 45 -8 107 -43 107
-60 0 -20 -11 -26 -29 -16 -35 19 -421 143 -503 161 -47 10 -175 28 -285 39
-243 24 -242 24 -355 61 -74 25 -122 33 -243 41 -144 11 -245 6 -245 -11 0 -5
33 -9 73 -9 171 -2 434 -62 423 -97 -4 -13 -87 -12 -216 3 -131 16 -342 20
-480 9 -58 -5 -106 -10 -108 -12 -2 -2 -1 -8 2 -14 12 -19 80 -31 201 -37 81
-4 136 -12 170 -25 28 -10 77 -26 110 -36 l60 -18 -58 -3 c-37 -2 -85 4 -130
17 -55 16 -110 21 -232 24 -149 3 -167 6 -255 36 -52 17 -117 46 -145 62 -27
17 -83 40 -124 50 l-75 19 -38 -37 c-42 -43 -53 -80 -28 -103 9 -8 10 -11 3
-6 -7 5 -13 5 -13 0 0 -5 -5 -1 -11 9 -15 25 -46 21 -65 -8 -23 -36 -44 -183
-33 -239 12 -63 35 -104 125 -226 76 -103 185 -221 233 -253 22 -14 23 -19 13
-41 -6 -14 -31 -49 -54 -78 -104 -127 -195 -318 -208 -437 -5 -42 -16 -116
-23 -166 -21 -131 -31 -308 -19 -331 6 -10 13 -31 16 -46 4 -15 24 -48 46 -73
22 -25 40 -52 40 -59 0 -7 14 -32 30 -55 17 -23 28 -46 25 -51 -17 -27 56
-130 93 -130 5 0 7 84 4 218 -6 269 6 391 52 527 19 55 53 161 76 235 50 160
107 276 161 325 l39 35 183 1 c851 7 1437 6 1517 -1 52 -4 200 -19 329 -32
l234 -23 33 -70 c19 -38 45 -115 59 -170 29 -109 60 -175 115 -239 102 -117
115 -165 112 -415 -1 -164 1 -188 18 -227 11 -23 21 -56 21 -71 1 -21 3 -23 6
-8 3 11 20 52 39 92 l34 72 48 -6 48 -5 14 73 c7 41 19 83 26 95 12 18 12 32
-2 100 -12 55 -15 105 -11 164 6 104 -11 229 -47 338 -55 164 -187 388 -274
462 -50 43 -50 44 -45 94 7 73 -13 199 -41 254 -25 49 -70 103 -198 234 -53
54 -90 83 -124 97 -27 10 -80 35 -118 55 -38 20 -87 41 -110 47 -23 6 -84 26
-136 45 -101 37 -289 88 -297 80 -4 -4 219 -93 277 -111 37 -11 170 -73 170
-80 0 -2 -24 5 -52 16 -131 53 -472 157 -599 184 -81 17 -89 18 -107 6z m338
-237 c31 -5 33 -7 15 -17 -44 -26 -499 -7 -554 23 -16 8 481 3 539 -6z m363
-143 c96 -35 137 -53 137 -63 0 -8 -230 70 -244 83 -19 17 26 9 107 -20z"/>
<path d="M28689 23350 c-49 -8 -117 -39 -143 -65 -17 -18 -23 -95 -6 -95 5 0
32 9 60 20 87 34 145 36 229 7 41 -15 78 -24 83 -21 16 10 9 90 -9 106 -49 43
-131 61 -214 48z"/>
<path d="M27880 23160 c-94 -17 -117 -39 -108 -101 3 -27 -9 -26 173 -14 58 4
118 3 144 -3 61 -14 71 -8 71 45 0 41 -2 45 -36 59 -43 18 -181 26 -244 14z"/>
<path d="M27936 22869 c-18 -14 -26 -30 -26 -53 0 -49 24 -76 69 -76 48 0 73
26 73 76 0 67 -62 95 -116 53z"/>
<path d="M28581 22873 c-11 -10 -24 -32 -27 -50 -5 -26 -1 -37 19 -57 31 -31
65 -33 101 -5 52 41 23 129 -43 129 -16 0 -38 -8 -50 -17z"/>
<path d="M27970 21999 c-326 -14 -486 -55 -572 -146 -67 -70 -106 -223 -94
-369 10 -120 71 -481 96 -566 66 -220 178 -345 363 -403 284 -90 795 -81 1060
19 183 69 308 215 390 456 57 169 119 433 124 535 12 219 -63 346 -241 411
-177 64 -591 87 -1126 63z m25 -164 c258 -19 331 -19 616 2 270 19 325 14 383
-37 33 -29 74 -99 79 -135 1 -11 6 -25 10 -32 12 -20 -24 -249 -42 -263 -3 -3
-17 -27 -31 -53 -47 -94 -127 -150 -285 -200 -128 -40 -281 -61 -460 -61 -284
-1 -503 53 -603 148 -74 69 -126 225 -127 381 0 93 2 104 30 155 32 58 73 89
134 101 55 10 81 10 296 -6z"/>
<path d="M27682 21689 c-32 -51 -25 -159 19 -296 18 -56 57 -113 76 -113 5 0
14 13 20 29 19 52 50 55 528 55 237 1 443 -2 458 -7 15 -4 36 -21 46 -37 l18
-30 27 29 c62 65 110 308 72 366 -24 37 -31 31 -32 -29 -1 -68 -27 -115 -79
-141 -38 -19 -58 -20 -527 -19 -453 2 -489 3 -525 20 -47 23 -74 74 -75 143
-2 56 -7 62 -26 30z"/>
<path d="M27096 20391 c13 -12 94 -23 94 -12 0 9 -47 21 -83 21 -13 0 -17 -4
-11 -9z"/>
<path d="M27160 20350 c20 -13 40 -13 40 0 0 6 -12 10 -27 10 -22 0 -25 -2
-13 -10z"/>
<path d="M27220 20326 c0 -3 9 -10 20 -16 11 -6 20 -8 20 -6 0 3 -9 10 -20 16
-11 6 -20 8 -20 6z"/>
<path d="M28885 20275 c-39 -14 -40 -14 -5 -8 41 7 82 22 60 22 -8 0 -33 -7
-55 -14z"/>
<path d="M28755 20245 c-27 -7 -41 -13 -30 -13 11 0 43 6 70 13 28 7 41 13 30
13 -11 0 -42 -6 -70 -13z"/>
<path d="M27944 20021 c3 -75 13 -180 21 -235 8 -54 12 -102 9 -107 -5 -9 -42
15 -91 59 -23 21 -24 24 -9 41 22 24 20 32 -6 22 -26 -9 -46 -5 -70 17 -22 19
-23 50 -1 82 9 14 10 19 3 13 -24 -22 -57 -16 -64 12 l-7 26 -39 -32 c-21 -17
-69 -68 -107 -113 -122 -145 -156 -176 -195 -176 -19 0 -40 6 -47 13 -10 10
-11 9 -6 -5 4 -11 2 -18 -4 -18 -6 0 -11 -4 -11 -10 0 -5 7 -10 15 -10 8 0 15
-4 15 -10 0 -5 -7 -7 -15 -4 -8 4 -15 2 -15 -4 0 -5 11 -13 25 -16 14 -4 25
-11 25 -16 0 -5 6 -7 13 -5 6 3 17 -6 23 -20 11 -22 10 -24 -6 -15 -14 7 -20
4 -29 -17 -11 -23 -10 -25 3 -13 10 7 16 8 16 2 0 -6 -5 -14 -11 -18 -8 -5 -7
-9 1 -14 7 -5 14 -21 16 -37 2 -15 12 -35 24 -45 11 -9 20 -23 20 -32 0 -9 3
-16 8 -16 4 0 16 -18 26 -40 10 -22 23 -37 27 -34 5 3 9 0 9 -6 0 -6 4 -8 10
-5 6 4 7 -1 3 -11 -4 -11 -8 -13 -11 -6 -6 19 -22 3 -22 -21 0 -17 2 -19 10
-7 5 8 12 11 16 7 4 -4 -1 -16 -10 -26 -17 -19 -17 -21 17 -55 25 -25 42 -34
61 -32 28 3 31 -1 16 -24 -6 -10 -10 -11 -10 -2 0 6 -4 12 -10 12 -25 0 -6
-27 30 -43 l40 -17 -17 -26 c-16 -26 -16 -27 6 -45 13 -11 19 -23 15 -30 -4
-7 -3 -9 3 -6 6 4 17 -1 24 -9 12 -15 10 -16 -20 -9 -30 6 -32 5 -20 -8 8 -8
20 -12 26 -10 8 3 13 -3 13 -17 0 -18 -4 -21 -21 -17 -13 3 -19 1 -16 -6 2 -7
9 -13 15 -13 7 -1 17 -2 22 -3 6 0 10 -9 10 -18 0 -15 -2 -16 -10 -3 -6 10
-10 11 -10 3 0 -7 -11 -13 -25 -13 -30 0 -33 -16 -4 -23 12 -3 18 -10 14 -16
-4 -7 5 -11 22 -11 28 -1 28 -1 5 -13 -18 -10 -20 -15 -10 -26 11 -10 9 -15
-7 -28 -14 -11 -16 -17 -7 -20 15 -6 16 -53 1 -53 -7 0 -9 -10 -5 -25 6 -25
-9 -36 -17 -12 -2 6 -4 -2 -5 -20 0 -25 4 -33 21 -36 21 -3 20 -4 -5 -15 -34
-14 -36 -22 -5 -16 12 2 16 2 10 -2 -19 -9 -16 -24 3 -17 14 5 15 3 5 -16 -7
-12 -9 -27 -5 -34 5 -8 2 -7 -9 2 -12 9 -17 10 -17 2 0 -6 6 -14 13 -16 8 -4
12 -31 13 -83 1 -75 1 -76 -13 -42 -7 19 -11 24 -9 11 3 -13 1 -34 -4 -47 -7
-18 -5 -26 8 -34 15 -9 15 -11 2 -22 -17 -15 -24 -72 -11 -95 6 -11 2 -22 -11
-35 -13 -13 -16 -26 -12 -45 5 -17 3 -24 -4 -19 -6 3 -14 1 -18 -5 -4 -7 -3
-9 3 -6 6 4 13 -2 16 -13 3 -11 1 -20 -5 -20 -5 0 -6 -5 -3 -10 4 -6 11 -8 16
-5 5 4 9 -1 9 -9 0 -9 -7 -16 -15 -16 -8 0 -15 -8 -15 -17 0 -16 2 -16 11 -3
8 12 9 11 7 -5 -2 -11 -11 -19 -20 -19 -10 1 -14 -5 -11 -17 3 -10 9 -16 14
-13 15 9 10 -15 -8 -43 -10 -15 -12 -24 -5 -20 7 5 12 3 12 -7 0 -8 7 -22 16
-30 14 -15 14 -16 0 -16 -9 0 -16 -8 -16 -17 0 -10 -6 -30 -14 -45 -10 -20
-11 -28 -3 -31 7 -3 1 -9 -12 -14 l-24 -10 22 -22 c18 -18 19 -22 6 -27 -8 -4
-15 -18 -15 -33 0 -15 -6 -33 -12 -40 -8 -8 -8 -11 -2 -8 13 8 40 -20 30 -30
-3 -3 -6 -1 -6 5 0 7 -4 12 -10 12 -5 0 -10 -9 -10 -20 0 -12 7 -20 17 -20 15
0 15 -2 -1 -19 -13 -14 -16 -30 -11 -65 5 -43 3 -46 -17 -46 -19 0 -20 2 -8
11 12 9 12 10 1 7 -24 -7 -25 -28 -1 -28 12 0 18 -4 15 -10 -4 -6 -12 -8 -18
-4 -7 3 -3 -2 7 -10 15 -12 16 -16 5 -16 -12 0 -12 -2 1 -10 12 -8 13 -12 2
-19 -19 -12 -17 -24 5 -32 16 -7 15 -8 -4 -8 -26 -1 -31 -26 -8 -35 24 -9 18
-28 -7 -21 -22 6 -22 5 -3 -7 16 -10 218 -14 935 -20 503 -5 921 -10 929 -13
11 -5 13 -70 7 -403 -3 -218 -8 -716 -11 -1107 -3 -390 -8 -826 -11 -968 l-6
-258 163 7 164 7 39 35 c21 19 62 45 90 58 67 30 232 58 311 51 114 -9 217
-87 274 -207 22 -47 26 -68 26 -150 0 -233 -113 -429 -273 -474 -80 -22 -81
-21 -29 19 100 76 149 187 149 335 1 154 -48 270 -153 364 -109 98 -250 102
-359 8 -19 -17 -33 -32 -30 -35 3 -3 55 -9 116 -15 76 -7 123 -16 151 -31 50
-25 116 -98 129 -143 12 -38 10 -113 -3 -131 -5 -7 -10 -30 -12 -52 -11 -180
-146 -294 -367 -312 -75 -6 -70 -8 -144 60 -8 8 -26 20 -39 27 -22 11 -28 8
-84 -48 l-60 -60 152 -7 c90 -5 149 -11 143 -17 -5 -5 -86 -14 -180 -20 -167
-11 -172 -12 -172 -34 0 -21 3 -21 103 -18 56 1 131 6 166 9 36 4 204 13 375
20 171 8 323 17 339 20 25 7 27 5 27 -21 l0 -29 -513 -188 -513 -188 -1629 66
c-897 36 -2239 90 -2983 120 -744 29 -1357 57 -1362 60 -6 4 -10 273 -11 758
0 414 -3 745 -6 737 -6 -18 -16 -43 -38 -93 -107 -244 -176 -674 -160 -1002 7
-134 23 -333 31 -382 7 -40 10 -40 289 -48 110 -3 301 -10 425 -15 124 -5 255
-10 293 -10 54 0 67 -3 67 -16 0 -16 -126 -144 -142 -144 -5 0 -6 -4 -3 -10 3
-5 -1 -10 -9 -10 -9 0 -21 -9 -28 -20 -7 -11 -18 -20 -25 -20 -7 0 -13 -4 -13
-10 0 -5 -7 -7 -15 -4 -10 4 -15 0 -15 -11 0 -9 -4 -13 -10 -10 -5 3 -10 0
-10 -8 0 -8 -7 -18 -16 -21 -22 -8 -26 -8 -19 4 3 5 0 7 -9 4 -8 -3 -17 -12
-20 -20 -8 -20 -26 -18 -26 4 0 13 -2 14 -9 3 -5 -7 -14 -10 -20 -7 -6 4 -11
0 -11 -9 0 -9 -5 -13 -11 -9 -6 3 -15 0 -20 -7 -6 -9 -9 -10 -9 -2 0 6 5 15
10 18 13 8 13 25 1 25 -6 0 -18 -13 -27 -29 -16 -27 -44 -33 -44 -9 0 5 5 6
10 3 6 -3 10 -2 10 4 0 5 -4 13 -10 16 -5 3 -10 1 -10 -4 0 -15 -27 -14 -33 2
-4 10 -6 10 -6 0 -1 -7 -11 -13 -23 -13 -18 0 -20 -2 -8 -10 27 -17 2 -22 -30
-5 -19 10 -29 12 -25 5 5 -9 1 -10 -14 -5 -11 3 -21 3 -21 -2 0 -11 -233 -10
-241 1 -4 4 -17 3 -29 -4 -20 -11 -25 -10 -37 6 -8 11 -13 13 -13 5 0 -10 -9
-12 -30 -8 -16 4 -32 3 -34 -2 -3 -4 -28 -4 -56 0 -31 5 -62 4 -78 -2 -15 -6
-28 -10 -29 -9 -19 11 -64 16 -69 9 -4 -6 -11 -6 -19 1 -7 6 -25 8 -39 4 -19
-4 -33 -1 -46 11 -18 16 -20 17 -26 1 -6 -16 -8 -16 -24 -1 -10 9 -20 12 -23
8 -6 -10 -52 -9 -84 1 -12 4 -25 1 -33 -9 -11 -14 -14 -14 -24 0 -9 13 -17 14
-39 6 -35 -14 -40 -14 -32 -1 8 13 -1 13 -27 -1 -12 -6 -18 -7 -14 -1 3 5 -4
12 -16 15 -12 4 -25 1 -29 -5 -4 -7 -8 -6 -12 3 -3 11 -8 11 -17 3 -15 -15
-53 -6 -46 11 3 8 -4 11 -20 9 -13 -1 -24 2 -24 8 0 6 -6 8 -14 5 -7 -3 -19 0
-26 6 -10 10 -12 7 -7 -11 4 -18 3 -21 -8 -12 -7 6 -19 9 -26 8 -7 -2 -13 4
-14 12 -1 8 -6 14 -13 12 -7 -1 -12 3 -12 9 0 5 -4 7 -10 4 -5 -3 -10 -1 -10
5 0 6 -10 10 -22 9 -37 -3 -78 18 -78 41 0 11 -5 20 -10 20 -6 0 -10 8 -8 18
2 9 -2 16 -7 15 -6 -1 -12 7 -13 18 -4 42 -6 49 -13 49 -22 0 -41 -95 -59
-304 -6 -65 -13 -123 -16 -128 -3 -5 0 -16 7 -24 9 -11 9 -26 0 -67 -14 -61
-19 -229 -11 -340 3 -43 2 -84 -2 -90 -10 -17 -182 -22 -230 -8 -56 17 -62 35
-49 165 10 111 15 194 12 231 -1 17 -3 18 -11 5 -8 -13 -10 -12 -10 3 0 11 -8
17 -24 17 -13 0 -30 10 -38 22 -13 20 -15 2 -22 -182 -3 -113 -2 -241 2 -285
5 -44 8 -110 7 -147 -2 -38 -1 -68 0 -68 1 0 18 7 38 15 40 16 50 10 62 -37 7
-26 28 -30 23 -5 -5 26 13 67 30 68 13 0 12 2 -4 9 -19 7 -21 15 -18 56 1 26
9 51 16 56 10 8 10 11 1 15 -25 9 -13 20 21 18 18 -1 41 -9 51 -18 9 -9 13
-17 8 -17 -4 0 -1 -5 7 -10 13 -8 13 -10 0 -10 -9 0 -7 -5 8 -16 18 -12 20
-19 12 -29 -9 -10 -7 -20 5 -39 9 -14 14 -30 11 -35 -4 -5 -2 -12 4 -16 5 -3
10 -12 10 -18 0 -7 -4 -6 -10 3 -8 13 -10 12 -10 -2 0 -10 5 -18 10 -18 6 0
10 -7 10 -15 0 -8 5 -15 10 -15 6 0 10 -7 10 -15 0 -8 11 -22 25 -31 14 -9 23
-20 20 -24 -5 -9 68 -34 103 -35 23 0 29 -9 54 -74 15 -41 34 -81 42 -90 33
-32 134 -31 691 8 257 19 466 29 669 33 60 1 82 -2 88 -13 4 -8 40 -86 79
-174 277 -621 658 -1236 1039 -1679 l97 -113 6 -849 c3 -467 11 -1130 18
-1474 l11 -625 -175 -435 c-492 -1223 -711 -1933 -734 -2374 -10 -196 27 -342
98 -395 51 -38 138 -29 211 21 14 10 32 17 40 15 7 -2 10 -2 5 0 -4 3 27 39
69 81 173 174 340 443 562 902 52 107 95 196 96 197 4 5 225 -43 233 -51 5 -5
-9 -6 -32 -3 l-40 6 24 -18 c18 -14 29 -16 41 -9 12 8 35 6 81 -6 35 -9 98
-20 139 -24 63 -5 70 -7 40 -13 -22 -4 4 -7 70 -8 58 -1 142 -8 187 -16 113
-20 209 -29 228 -21 15 5 15 7 -1 23 -17 17 -17 18 5 21 34 5 71 -6 71 -22 0
-8 6 -16 13 -18 19 -7 383 28 484 47 50 9 100 23 110 30 36 26 27 152 -92
1295 -69 667 -72 694 -64 730 17 77 72 483 134 985 86 702 97 785 107 785 5 0
69 -18 141 -39 336 -101 636 -154 957 -170 525 -26 1054 56 1588 247 76 27
114 36 117 29 7 -23 178 -1039 365 -2162 252 -1517 321 -1887 455 -2431 163
-663 318 -1055 503 -1273 25 -29 64 -67 85 -82 22 -16 35 -29 30 -29 -6 0 -23
10 -39 23 -16 12 -31 20 -34 19 -3 -2 -13 -8 -23 -14 -15 -8 -16 -12 -5 -25
23 -28 75 -43 145 -42 49 1 61 3 43 9 -22 7 -19 8 16 9 195 5 298 383 266 969
-36 637 -119 1161 -446 2809 -96 483 -220 1123 -276 1423 -132 717 -196 1039
-225 1146 -22 78 -23 90 -9 97 9 5 90 58 180 118 90 60 168 109 172 109 4 0
20 -42 35 -93 57 -182 677 -1886 897 -2462 429 -1122 704 -1678 954 -1931 52
-52 113 -103 141 -117 55 -29 57 -35 2 -12 -30 12 -37 12 -46 1 -19 -23 1 -27
105 -22 111 6 135 17 172 84 102 182 52 583 -157 1252 -113 363 -219 661 -538
1509 -231 616 -399 1078 -563 1545 -158 452 -235 640 -317 769 l-25 40 94 96
c173 176 377 429 471 583 9 16 26 39 37 51 11 11 19 26 17 31 -4 11 4 22 34
54 17 18 69 111 69 124 0 5 8 17 18 27 35 39 43 51 38 59 -6 9 20 57 31 57 4
0 7 12 5 28 -2 15 2 27 8 27 6 0 8 -6 4 -12 -4 -7 -3 -10 1 -6 5 5 10 20 11
35 2 14 9 30 16 34 7 5 9 9 5 9 -4 0 2 10 14 23 21 22 44 66 41 80 -1 4 2 7 7
7 5 0 8 8 7 18 0 9 5 16 12 14 9 -2 11 2 6 10 -11 17 -14 38 -6 37 20 -3 33 2
28 10 -4 5 0 11 6 14 10 3 10 9 0 26 -12 20 -11 23 8 28 13 4 19 11 16 20 -3
8 -2 12 3 9 14 -9 21 20 8 34 -8 8 -8 11 -1 7 13 -8 31 29 28 61 -1 19 1 20
14 10 13 -11 14 -10 8 8 -5 16 -2 24 11 28 15 6 15 8 3 17 -13 8 -12 12 4 24
11 8 16 15 11 15 -5 0 -4 5 3 12 7 7 12 17 12 22 0 6 -5 4 -10 -4 -6 -9 -10
-10 -10 -3 0 7 8 16 18 22 9 5 16 12 15 15 -7 15 -2 25 15 29 16 4 16 5 -1 6
-15 1 -16 3 -5 15 7 8 17 12 21 9 5 -3 8 8 7 23 -2 35 9 76 20 69 4 -2 6 11 5
29 -3 26 2 36 18 44 13 6 16 11 8 11 -11 1 -10 6 5 23 10 12 13 18 7 14 -18
-10 -16 0 4 20 14 13 15 18 5 22 -10 3 -8 8 7 18 11 8 18 21 15 29 -4 8 0 17
8 20 8 3 15 11 16 18 3 42 13 81 23 93 6 8 9 21 5 29 -4 11 -2 14 6 9 8 -5 9
3 5 27 -5 23 -4 29 2 19 13 -19 24 -7 27 27 3 22 1 25 -7 13 -9 -12 -10 -12
-5 3 3 10 6 21 6 23 0 3 4 3 9 0 5 -4 7 3 4 14 -3 11 0 20 6 20 6 0 11 8 11
17 0 24 23 87 35 96 6 4 4 11 -5 17 -13 8 -13 10 1 10 10 0 19 12 23 31 3 17
9 28 13 26 5 -3 9 11 11 30 1 19 7 43 12 53 5 10 7 26 4 34 -4 11 0 16 11 16
9 0 15 6 12 13 -2 6 -14 11 -25 9 -16 -2 -20 1 -16 12 3 8 12 17 20 20 8 3 11
12 7 22 -5 13 -2 16 9 11 16 -6 29 12 27 36 0 7 -3 4 -7 -5 -5 -13 -11 -15
-22 -8 -11 8 -12 12 -3 18 7 4 14 17 16 27 1 11 5 25 8 30 9 14 22 66 23 90 1
12 7 19 16 17 10 -1 9 2 -4 13 -11 8 -14 15 -8 15 7 0 12 4 12 8 0 18 -27 7
-37 -15 -7 -13 -7 -23 -2 -23 6 0 4 -6 -3 -14 -8 -8 -15 -10 -19 -4 -4 6 -17
7 -29 3 -12 -4 -18 -10 -13 -14 14 -9 1 -36 -17 -36 -10 0 -14 -8 -12 -22 2
-13 -2 -23 -7 -23 -6 0 -11 -9 -11 -20 0 -11 -6 -20 -12 -20 -17 0 -52 -74
-45 -93 4 -11 0 -13 -14 -10 -13 4 -19 0 -19 -11 0 -27 -52 -101 -63 -90 -9 9
-19 -35 -11 -47 4 -7 3 -9 -3 -6 -5 4 -21 -6 -34 -21 -13 -15 -21 -27 -19 -27
3 0 -2 -10 -11 -22 -9 -13 -18 -21 -21 -18 -3 3 -10 -12 -16 -32 -12 -37 -57
-81 -70 -69 -3 4 4 13 16 22 24 17 29 39 10 50 -8 5 -9 2 -5 -9 3 -10 2 -17
-2 -17 -10 0 -21 24 -21 46 0 9 4 13 9 10 5 -3 11 5 13 19 3 14 1 25 -5 25 -5
0 -4 6 2 14 6 8 11 18 10 22 -1 5 -1 11 0 14 1 3 4 21 7 40 6 44 12 75 14 75
2 0 5 13 14 52 2 12 16 66 31 120 15 54 28 105 30 113 4 16 70 274 110 425 12
50 35 144 50 210 15 66 36 156 47 200 10 44 23 100 28 125 5 25 16 74 24 110
14 58 54 247 76 355 5 22 11 63 14 90 3 28 7 60 10 73 3 16 1 22 -7 19 -7 -3
-11 -10 -9 -16 1 -6 -3 -11 -9 -11 -5 0 -7 -5 -4 -11 4 -6 -1 -16 -11 -24 -11
-7 -19 -17 -20 -22 0 -4 -10 -28 -22 -53 -12 -25 -22 -54 -22 -65 0 -13 -3
-16 -8 -8 -5 8 -15 -5 -27 -37 -11 -28 -27 -53 -37 -56 -10 -3 -18 -10 -18
-15 0 -5 -5 -9 -11 -9 -6 0 -10 12 -9 28 1 15 1 29 0 32 -9 21 -5 130 6 153 7
16 8 27 3 27 -6 0 -8 8 -5 18 3 9 8 34 10 54 3 21 8 53 11 70 3 18 7 50 10 71
2 20 11 66 20 101 9 35 15 67 14 72 -3 11 10 98 22 144 11 44 20 102 25 160 2
24 8 58 14 75 5 16 9 39 9 50 0 11 3 34 6 50 3 17 8 48 11 70 2 22 9 55 14 74
5 19 7 38 4 43 -3 4 -1 8 4 8 5 0 9 19 9 43 0 24 2 48 5 53 3 5 5 27 5 49 0
22 5 57 11 78 8 27 7 37 -1 37 -8 0 -7 4 2 9 9 6 11 18 7 34 -3 14 -2 36 3 49
4 13 5 32 1 43 -4 11 -5 24 -2 30 4 5 7 25 9 43 2 24 -1 31 -10 26 -9 -6 -9
-5 0 7 7 9 8 20 3 29 -5 8 -4 22 2 33 7 14 7 17 -1 13 -6 -4 -11 -2 -11 3 0 6
4 11 8 11 4 0 8 9 9 20 1 11 -4 20 -10 20 -7 0 -6 4 3 10 9 6 11 10 3 10 -7 0
-10 6 -7 14 3 8 1 17 -4 20 -6 4 -7 20 -2 42 6 24 5 43 -3 56 -10 15 -9 21 3
28 13 9 13 12 -3 21 -18 10 -18 12 -1 30 15 17 15 19 1 19 -19 0 -26 34 -15
73 6 23 4 28 -7 23 -8 -3 -15 -1 -15 4 0 6 5 10 12 10 9 0 9 3 0 12 -16 16
-15 31 1 22 9 -6 9 -5 0 8 -7 8 -10 18 -6 22 4 4 1 11 -7 16 -11 7 -11 10 -2
10 9 0 10 5 3 18 -5 9 -9 30 -9 46 0 15 -6 32 -13 37 -9 6 -10 9 -2 9 9 0 8
10 -3 36 -9 20 -13 47 -10 58 3 12 -1 33 -8 47 -7 14 -11 35 -10 47 2 11 -1
24 -6 27 -16 10 -12 25 5 19 11 -4 13 -2 9 9 -3 9 -13 18 -22 22 -14 5 -14 7
-2 16 13 8 13 10 1 18 -10 6 -12 20 -8 44 3 20 1 40 -6 47 -9 10 -9 11 2 5 8
-5 7 2 -4 19 -14 20 -15 30 -6 39 17 17 13 25 -12 23 -20 -2 -23 1 -19 21 2
12 9 23 14 23 5 0 7 4 3 9 -3 5 -1 13 5 16 7 4 0 16 -17 31 -27 23 -27 24 -5
24 12 0 22 5 22 11 0 6 -7 9 -15 5 -8 -3 -15 -1 -15 4 0 6 6 10 13 10 9 0 9 2
0 8 -8 5 -9 13 -3 22 13 21 12 30 -4 30 -9 0 -12 8 -8 25 2 15 0 25 -7 25 -7
0 -5 11 6 27 10 15 13 24 8 21 -6 -4 -17 -2 -25 3 -13 8 -13 10 0 19 13 8 12
10 -5 11 -11 0 -14 3 -7 6 6 2 12 9 12 14 0 6 -5 7 -10 4 -13 -8 -9 33 4 54 6
10 5 12 -2 7 -7 -4 -12 -3 -12 3 0 5 6 12 13 15 6 4 3 5 -9 2 -11 -2 -21 2
-22 8 0 6 -6 32 -12 59 -11 46 -24 60 -32 35 -3 -9 -6 -9 -12 0 -4 7 -3 12 2
12 6 0 8 10 6 23 -4 20 -4 21 5 2 7 -15 10 -16 10 -4 1 17 -39 59 -56 59 -6 0
-9 9 -5 22 4 16 2 19 -8 13 -10 -6 -12 -1 -8 19 3 14 1 26 -3 26 -5 0 -9 6 -9
13 -1 16 -35 57 -49 57 -6 0 -11 7 -11 15 0 22 -21 18 -27 -5 -5 -17 -7 -17
-20 -5 -8 9 -12 23 -8 35 3 11 2 20 -3 20 -5 0 -12 9 -15 20 -4 15 -10 18 -24
13 -10 -3 -22 -11 -26 -17 -5 -6 -5 -1 -2 12 4 13 2 22 -4 22 -6 0 -11 5 -11
11 0 5 5 7 10 4 6 -3 10 -1 10 4 0 10 -22 16 -44 12 -16 -3 -49 11 -40 18 17
11 45 61 35 61 -6 0 -15 -8 -20 -17 -6 -10 -11 -12 -11 -5 0 6 -8 12 -17 13
-11 0 -13 3 -5 6 21 8 14 32 -9 28 -15 -3 -19 0 -15 10 3 9 -1 15 -10 15 -8 0
-13 -4 -10 -9 4 -5 -3 -7 -14 -4 -19 5 -25 20 -21 51 3 21 -19 13 -30 -10
l-10 -23 5 23 c3 16 -1 22 -15 22 -11 0 -19 7 -20 18 0 14 -2 14 -9 -3 -8 -19
-9 -19 -9 3 -1 15 -7 22 -22 22 -11 0 -18 4 -14 9 3 5 1 13 -5 16 -6 4 -10 3
-9 -2 3 -14 -13 -43 -23 -43 -6 0 -8 9 -5 19 3 12 -1 22 -10 25 -22 9 -35 7
-28 -3 3 -5 1 -12 -5 -16 -10 -6 -14 7 -11 33 1 6 -3 12 -9 12 -5 0 -9 -3 -7
-8 1 -4 -1 -8 -5 -10 -20 -6 -28 0 -28 19 0 14 -5 19 -14 16 -9 -4 -17 1 -19
11 -4 16 -5 15 -6 0 -1 -22 -5 -22 -36 -2 -20 13 -25 14 -25 3 0 -11 -2 -11
-9 -1 -6 10 -10 10 -20 -2 -14 -16 -45 -10 -38 8 2 6 0 20 -5 31 -8 18 -8 18
-4 -2 5 -29 -15 -30 -32 -3 -12 20 -42 28 -42 11 0 -16 -44 -21 -53 -6 -11 21
-28 19 -20 -2 4 -11 3 -14 -5 -9 -7 4 -12 13 -12 20 0 18 -47 17 -54 0 -3 -8
-10 -14 -16 -14 -6 0 -3 11 6 25 10 15 12 25 5 25 -6 0 -11 -4 -11 -9 0 -5
-14 -9 -30 -9 -22 1 -29 5 -26 15 3 7 -1 13 -10 13 -8 0 -13 -4 -9 -9 3 -5 1
-12 -5 -16 -5 -3 -10 1 -10 9 0 12 -6 13 -30 6 -26 -7 -30 -6 -30 10 0 10 6
21 13 23 7 3 5 6 -5 6 -12 1 -18 -6 -18 -19 0 -14 -7 -20 -21 -20 -11 0 -18 3
-16 8 7 10 -14 27 -38 29 -11 1 -14 0 -7 -3 6 -3 10 -10 6 -15 -3 -5 0 -9 6
-9 6 0 8 -5 5 -11 -5 -6 -13 -3 -22 10 -22 32 -34 25 -18 -11 8 -18 19 -32 24
-31 6 2 8 -3 5 -10 -3 -8 6 -36 20 -63 251 -501 504 -1443 585 -2179 47 -429
35 -722 -45 -1039 -60 -237 -181 -492 -324 -681 -54 -71 -52 -70 -160 -179
-117 -118 -136 -136 -144 -136 -6 0 -47 -33 -79 -65 -11 -11 -17 -14 -13 -7 9
16 1 16 -16 -1 -19 -19 -108 -77 -117 -77 -4 0 -28 -10 -52 -23 -24 -13 -69
-32 -99 -42 -30 -10 -64 -21 -75 -25 -11 -4 -36 -13 -55 -20 -19 -6 -43 -12
-52 -12 -10 1 -18 -3 -18 -8 0 -5 -7 -7 -15 -4 -8 3 -20 2 -27 -2 -7 -5 -22
-9 -33 -9 -11 -1 -32 -7 -47 -13 -52 -22 -58 -11 -52 96 10 171 -34 311 -128
405 -54 54 -152 104 -223 114 -54 7 -59 28 -12 49 43 19 65 34 96 64 14 14 38
31 52 39 14 7 57 42 95 78 38 35 79 71 92 80 12 8 22 21 22 28 0 7 11 16 25
19 14 4 23 11 20 16 -3 5 3 15 15 22 11 7 20 21 20 30 0 10 5 18 10 18 6 0 10
5 10 10 0 6 9 20 19 31 18 19 44 95 44 125 0 8 5 14 10 14 5 0 7 9 4 20 -3 11
1 23 8 28 8 4 14 10 14 15 1 4 1 8 2 10 6 18 3 47 -5 47 -6 0 -5 5 2 12 7 7
12 22 12 34 0 13 5 26 11 30 8 4 7 9 -2 15 -11 7 -10 9 4 9 9 0 17 4 17 9 0 5
-10 7 -22 4 -17 -3 -19 -2 -10 5 8 5 13 25 12 48 -3 54 -1 61 9 45 6 -9 8 -4
6 18 -1 17 -5 34 -9 38 -10 11 -7 43 5 43 7 0 9 8 4 23 -10 30 -12 407 -2 407
4 0 3 8 -2 19 -6 10 -10 50 -10 87 1 38 -1 90 -5 116 -3 27 -2 49 4 53 6 3 10
11 10 16 0 6 -5 7 -11 3 -8 -5 -10 1 -7 19 3 15 0 28 -6 31 -7 3 -3 11 8 20
11 9 15 16 9 16 -6 0 -9 9 -6 20 3 13 0 20 -8 20 -10 1 -8 4 4 11 9 5 17 15
17 22 0 7 -4 6 -10 -3 -8 -12 -10 -11 -10 8 0 12 -4 22 -10 22 -5 0 -10 8 -10
18 0 14 2 15 10 2 8 -13 10 -13 10 2 0 9 -5 20 -10 23 -6 4 -8 11 -4 16 3 5 0
17 -8 26 -11 14 -10 15 12 9 14 -4 32 -9 40 -12 9 -2 16 -12 16 -23 0 -13 -5
-17 -16 -13 -12 5 -13 3 -3 -9 16 -20 23 -99 9 -99 -6 0 -4 -6 4 -13 10 -8 14
-26 12 -60 -2 -27 2 -54 7 -61 6 -7 8 -16 4 -20 -11 -11 -13 -86 -3 -86 6 0
10 -11 10 -24 0 -13 6 -27 13 -29 8 -4 9 -6 0 -6 -14 -1 -6 -68 10 -89 8 -10
7 -16 -1 -21 -10 -6 -9 -14 2 -35 8 -16 13 -43 11 -62 -2 -25 1 -34 12 -34 12
0 13 -6 8 -27 -10 -36 -10 -53 0 -77 6 -15 5 -17 -5 -11 -9 5 -11 4 -6 -3 4
-7 18 -12 32 -12 26 0 29 -7 15 -29 -5 -8 -18 -12 -30 -8 -12 3 -19 1 -15 -4
3 -5 12 -9 20 -9 8 0 14 -8 14 -17 1 -16 2 -16 13 -2 7 9 21 14 32 12 11 -3
27 -5 36 -6 9 -1 15 -7 12 -14 -6 -16 -23 -17 -23 -1 0 6 -3 9 -6 5 -9 -9 16
-77 28 -77 6 0 6 6 -2 15 -20 24 22 80 43 58 4 -3 2 -12 -5 -20 -6 -7 -8 -16
-4 -20 3 -3 6 -2 6 4 0 6 9 9 20 6 11 -3 20 -14 20 -24 0 -11 5 -19 11 -19 5
0 8 4 5 9 -9 14 4 41 20 41 8 0 14 -4 14 -10 0 -15 26 -12 40 5 16 19 31 20
24 1 -3 -8 0 -17 7 -22 8 -4 10 -3 5 4 -7 11 7 16 42 15 6 -1 12 3 12 8 0 5 9
9 20 9 11 0 20 4 20 9 0 4 12 6 27 3 21 -4 25 -2 20 10 -4 12 0 14 14 11 15
-4 17 -9 10 -16 -16 -16 -13 -27 5 -20 11 4 14 13 9 30 -5 21 -3 24 12 19 14
-4 19 -1 19 14 0 11 -5 20 -11 20 -5 0 3 7 19 15 15 8 32 12 37 9 5 -3 9 -1 9
4 0 6 -8 13 -17 17 -16 6 -16 8 -2 18 19 14 47 63 30 53 -6 -4 -11 0 -11 9 0
9 5 13 10 10 6 -3 10 0 10 9 0 8 -5 16 -11 18 -8 3 -7 9 4 19 15 15 15 42 2
117 -4 21 -2 32 6 32 8 0 8 4 -1 15 -10 12 -8 16 11 24 22 9 22 10 4 11 -11 1
-14 4 -7 7 6 2 12 9 12 14 0 6 -4 7 -10 4 -5 -3 -10 1 -10 10 0 9 4 14 8 11
10 -6 8 31 -3 84 -4 19 -8 53 -9 75 -2 22 -7 51 -13 65 -6 14 -7 30 -2 36 5 6
3 16 -4 24 -9 10 -9 11 1 6 6 -4 12 -2 12 3 0 6 -5 11 -11 11 -6 0 -8 9 -4 20
3 11 2 20 -3 20 -16 0 -23 31 -12 45 8 9 8 15 0 20 -5 3 -10 13 -10 21 0 9 5
12 12 8 7 -4 8 -3 4 5 -4 6 -12 9 -17 6 -11 -7 -12 18 -2 29 12 11 9 40 -4 53
-6 7 -10 28 -8 45 3 24 2 29 -5 18 -5 -8 -10 -13 -11 -10 -8 48 -7 70 1 65 6
-3 10 1 10 9 0 9 -5 16 -11 16 -5 0 -7 5 -4 10 4 6 1 17 -5 25 -7 8 -9 15 -4
15 5 0 2 6 -6 13 -21 16 -24 58 -4 50 8 -3 14 0 14 7 0 6 -4 9 -9 5 -15 -9
-24 14 -24 66 0 31 -4 49 -12 49 -7 0 -10 11 -7 29 2 15 -4 43 -13 62 -11 21
-14 34 -7 37 7 2 7 14 1 35 -5 18 -9 44 -9 59 0 14 -7 33 -15 41 -10 10 -11
17 -4 19 8 3 6 10 -5 21 -12 12 -16 26 -11 46 4 21 2 30 -11 35 -10 4 -14 12
-10 23 4 9 1 20 -6 25 -9 5 -9 8 -1 8 16 0 4 41 -19 63 -18 18 -18 20 -3 37
10 11 12 20 6 24 -16 10 -43 68 -48 106 -3 19 -9 37 -14 38 -5 2 -7 8 -4 13 3
5 0 19 -7 31 -6 13 -11 31 -9 41 3 20 -14 23 -23 5 -3 -7 -4 -1 -1 14 4 19 0
30 -12 37 -15 9 -15 12 -4 20 9 6 10 11 2 15 -6 4 -9 12 -6 17 4 5 0 9 -7 9
-8 0 -15 9 -16 20 -4 43 -6 50 -14 50 -4 0 -8 5 -8 11 0 5 5 7 12 3 7 -4 8 -3
4 4 -4 7 -15 12 -24 12 -13 0 -14 2 -3 9 11 7 11 9 0 14 -12 4 -11 7 1 16 13
9 12 11 -4 11 -12 0 -16 5 -12 15 3 8 -2 19 -12 24 -9 6 -14 11 -9 11 4 0 0
11 -8 24 -11 16 -13 26 -6 31 6 3 11 12 11 18 0 7 -4 6 -10 -3 -7 -12 -12 -12
-22 -2 -9 9 -9 12 0 12 7 0 12 5 12 11 0 5 -4 7 -10 4 -5 -3 -10 1 -10 10 0 9
-4 14 -9 10 -5 -3 -12 -1 -16 5 -3 5 0 10 7 10 7 1 4 6 -8 13 -13 7 -20 21
-19 35 1 13 -4 22 -12 22 -7 0 -13 11 -13 26 0 20 -4 25 -16 20 -8 -3 -12 -2
-9 3 3 5 1 13 -5 16 -8 5 -7 11 1 22 10 12 8 19 -14 39 -15 14 -27 29 -27 34
0 6 -8 10 -17 10 -13 0 -14 3 -5 8 9 6 8 13 -6 28 -17 18 -32 47 -31 60 0 3
-9 14 -20 23 -11 10 -17 22 -13 26 4 4 -3 4 -15 1 -14 -5 -23 -3 -23 3 0 6 6
11 13 12 6 0 3 4 -8 9 -11 5 -14 9 -7 9 24 2 12 19 -18 26 -28 6 -47 34 -42
62 2 6 -3 15 -9 19 -8 4 -9 3 -5 -4 4 -7 2 -12 -3 -12 -6 0 -11 8 -11 18 0 14
-2 15 -10 2 -8 -12 -10 -10 -11 10 0 14 -3 20 -6 13 -3 -10 -7 -10 -18 0 -7 7
-11 15 -8 19 2 4 -3 5 -11 2 -11 -4 -16 0 -16 14 0 24 -16 38 -22 20 -3 -8 -9
-4 -17 10 -6 12 -18 22 -26 22 -7 0 -17 5 -21 12 -5 8 -2 9 9 5 10 -3 17 -2
17 3 0 6 -9 10 -20 10 -11 0 -20 5 -20 10 0 14 -28 12 -32 -2 -3 -7 -7 -5 -11
6 -4 10 -3 15 3 11 6 -3 10 -2 10 4 0 12 -40 36 -40 24 -1 -4 -9 2 -20 15 -17
21 -19 21 -35 5 -14 -14 -18 -14 -26 -2 -6 9 -4 15 6 17 8 2 11 10 8 18 -5 13
-7 13 -14 2 -8 -11 -11 -11 -18 1 -5 7 -14 10 -20 7 -6 -4 -11 -3 -11 1 0 5
-15 10 -32 11 -18 2 -42 4 -53 6 -11 2 -23 -1 -26 -6 -4 -6 -6 2 -6 16 0 33
-3 35 -36 38 -15 1 -27 6 -27 10 0 5 -20 6 -44 4 -29 -3 -47 0 -50 7 -3 9 -7
8 -14 -2 -5 -7 -15 -10 -21 -7 -6 4 -11 2 -11 -3 0 -6 5 -11 11 -11 5 0 7 -5
4 -10 -8 -13 -35 13 -35 34 0 18 -16 30 -24 18 -3 -5 -17 -8 -30 -7 -19 2 -24
-1 -21 -15 2 -10 -3 -24 -11 -31 -12 -10 -13 -9 -9 4 4 8 1 18 -4 22 -6 3 -9
10 -6 15 3 4 -4 6 -16 3 -14 -4 -17 -8 -9 -13 9 -5 9 -9 1 -14 -6 -4 -11 -3
-11 2 0 5 -15 9 -34 9 -19 -1 -32 -5 -30 -9 3 -4 0 -16 -6 -25 -10 -16 -10
-16 -7 2 2 11 -3 33 -11 48 -7 16 -11 31 -8 34 3 3 8 -2 12 -11 3 -9 10 -16
15 -16 10 0 -1 33 -15 42 -12 8 -37 -23 -28 -37 8 -13 12 -35 6 -35 -3 0 -9
12 -15 28 -10 25 -12 26 -19 7 -4 -12 -16 -27 -26 -35 -16 -14 -17 -13 -11 3
8 21 1 22 -19 3 -12 -13 -12 -16 3 -26 13 -8 14 -13 5 -16 -6 -3 -9 -11 -6
-16 4 -7 2 -8 -5 -4 -6 4 -9 12 -5 17 3 6 -4 7 -20 3 -17 -4 -26 -2 -26 6 0 7
7 10 15 6 8 -3 15 -1 15 4 0 6 -4 10 -10 10 -5 0 -10 5 -10 10 0 6 7 10 15 10
17 0 19 9 6 29 -5 7 -14 10 -20 7 -10 -6 -15 6 -12 27 0 4 -3 7 -9 7 -5 0 -10
-7 -10 -16 0 -13 -3 -14 -14 -5 -11 10 -16 8 -20 -7 -5 -14 -17 -19 -47 -20
-22 -1 -45 -4 -50 -8 -14 -8 -11 -24 6 -24 8 0 15 4 15 8 0 4 9 8 20 8 11 0
20 -6 20 -14 0 -7 -5 -10 -10 -7 -6 4 -17 1 -25 -5 -11 -9 -21 -8 -46 4 -39
19 -40 19 -37 4 2 -7 -3 -12 -10 -10 -10 2 -11 -4 -6 -20 6 -20 5 -21 -8 -10
-13 11 -17 8 -23 -15 -4 -19 -9 -23 -14 -14 -7 11 -10 11 -14 0 -4 -12 -6 -12
-6 0 -1 9 -10 5 -25 -12 -16 -17 -26 -22 -29 -14 -4 9 -6 9 -6 0 -1 -7 -5 -13
-10 -13 -5 0 -7 9 -4 20 4 14 1 19 -8 17 -8 -2 -11 -2 -6 0 4 3 7 15 7 27 0
19 -5 22 -36 21 -29 -1 -34 2 -31 16 4 14 -1 17 -21 15 -34 -4 -62 26 -56 58
3 19 0 26 -11 26 -8 0 -15 7 -15 15 0 7 -7 18 -16 23 -14 8 -15 14 -5 42 12
35 6 54 -9 30 -7 -11 -9 -9 -7 8 0 12 7 22 14 22 16 0 17 16 2 26 -8 4 -7 9 2
16 11 7 11 11 2 15 -7 2 -13 11 -13 19 0 8 -9 14 -21 14 -17 0 -20 4 -14 29 5
24 2 29 -16 34 -17 5 -21 11 -17 31 3 15 1 23 -5 19 -5 -3 -7 0 -5 8 3 8 11
13 17 11 9 -2 9 3 1 17 -13 25 -13 41 0 21 8 -12 10 -10 10 8 0 15 4 21 12 16
7 -5 8 -3 3 6 -4 7 -2 16 6 22 10 7 9 8 -6 4 -60 -16 -414 -76 -435 -74 -16 2
-30 13 -38 31 -16 32 -10 32 -108 8 -44 -11 -100 -22 -126 -26 l-48 -6 0 30
c0 22 -5 31 -17 33 -10 0 -24 2 -31 2 -21 2 -59 44 -64 71 -3 14 -6 62 -7 107
-1 45 -6 87 -11 94 -6 6 -7 14 -3 17 3 4 1 13 -5 20 -7 8 -14 34 -17 58 -3 24
-6 49 -7 56 -1 6 -13 13 -26 16 l-25 5 7 -137z m-484 -592 c0 -14 -17 -10 -23
5 -4 10 -1 13 9 9 7 -3 14 -9 14 -14z m87 -201 c-3 -8 -6 -5 -6 6 -1 11 2 17
5 13 3 -3 4 -12 1 -19z m1966 -34 c7 1 9 1 5 -1 -5 -3 -8 -12 -8 -21 0 -15 -2
-15 -10 -2 -5 8 -9 22 -9 30 0 9 2 11 5 3 3 -7 11 -11 17 -9z m-33 -24 c9 -16
8 -18 -5 -14 -8 4 -15 10 -15 16 0 5 -4 7 -9 3 -5 -3 -12 -1 -16 5 -3 5 3 10
14 10 11 0 25 -9 31 -20z m410 10 c0 -5 -5 -10 -11 -10 -5 0 -7 5 -4 10 3 6 8
10 11 10 2 0 4 -4 4 -10z m-30 -25 c0 -8 -2 -15 -4 -15 -2 0 -6 7 -10 15 -3 8
-1 15 4 15 6 0 10 -7 10 -15z m190 5 c0 -5 -10 -10 -22 -10 -19 0 -20 2 -8 10
19 13 30 13 30 0z m-1040 -10 c0 -5 -5 -10 -11 -10 -5 0 -7 5 -4 10 3 6 8 10
11 10 2 0 4 -4 4 -10z m469 -33 c-1 -17 -2 -18 -6 -4 -2 9 -8 17 -13 17 -4 0
-10 7 -14 15 -4 13 -2 14 14 5 12 -6 20 -20 19 -33z m261 27 c0 -8 -4 -12 -10
-9 -5 3 -10 10 -10 16 0 5 5 9 10 9 6 0 10 -7 10 -16z m-307 -17 c-4 -7 -8
-16 -8 -21 0 -5 -6 -11 -12 -13 -7 -3 -13 2 -13 11 0 9 5 16 10 16 6 0 10 7
10 16 0 8 5 12 10 9 6 -4 7 -12 3 -18z m-80 6 c-7 -2 -13 -12 -13 -20 0 -9 -3
-14 -6 -10 -10 10 4 37 18 36 10 0 10 -2 1 -6z m724 -19 c-3 -3 -12 -4 -19 -1
-8 3 -5 6 6 6 11 1 17 -2 13 -5z m-767 -14 c0 -5 -4 -10 -10 -10 -5 0 -10 5
-10 10 0 6 5 10 10 10 6 0 10 -4 10 -10z m220 -10 c0 -11 -2 -20 -4 -20 -2 0
-6 9 -9 20 -3 11 -1 20 4 20 5 0 9 -9 9 -20z m-103 -17 c-9 -9 -20 -13 -24 -9
-4 4 -1 11 7 16 25 16 35 11 17 -7z m-312 -11 c-3 -3 -11 0 -18 7 -9 10 -8 11
6 5 10 -3 15 -9 12 -12z m1150 8 c-3 -5 -13 -10 -21 -10 -8 0 -12 5 -9 10 3 6
13 10 21 10 8 0 12 -4 9 -10z m-1011 -16 c3 -8 2 -12 -4 -9 -6 3 -10 10 -10
16 0 14 7 11 14 -7z m-1594 -98 c-15 -15 -33 4 -19 20 10 12 14 12 20 2 5 -7
4 -17 -1 -22z m4140 -498 c0 -18 -2 -20 -9 -8 -6 8 -7 18 -5 22 9 14 14 9 14
-14z m-32 -23 c-3 -3 -9 2 -12 12 -6 14 -5 15 5 6 7 -7 10 -15 7 -18z m-4084
-31 c3 -8 2 -12 -4 -9 -6 3 -10 10 -10 16 0 14 7 11 14 -7z m4286 -3 c0 -5 -7
-12 -16 -15 -14 -5 -15 -4 -4 9 14 17 20 19 20 6z m-4330 -401 c0 -5 -2 -10
-4 -10 -3 0 -8 5 -11 10 -3 6 -1 10 4 10 6 0 11 -4 11 -10z m5056 -196 c-4 -9
-9 -15 -11 -12 -3 3 -3 13 1 22 4 9 9 15 11 12 3 -3 3 -13 -1 -22z m-5119
-590 c-3 -3 -12 -4 -19 -1 -8 3 -5 6 6 6 11 1 17 -2 13 -5z m3137 -79 c3 -8 1
-15 -4 -15 -6 0 -10 7 -10 15 0 8 2 15 4 15 2 0 6 -7 10 -15z m9 -77 c-10 -19
-33 -6 -33 17 0 24 1 24 18 8 11 -10 17 -21 15 -25z m-5 -39 c10 -25 3 -89 -9
-89 -12 0 -11 31 0 49 6 9 4 23 -6 38 -10 15 -11 23 -4 23 6 0 15 -9 19 -21z
m19 -106 c-16 -4 -15 -6 5 -25 13 -11 17 -17 11 -13 -10 4 -11 -2 -6 -27 4
-18 7 -49 7 -68 1 -19 8 -40 16 -47 13 -11 12 -12 -8 -13 l-23 0 26 -25 c31
-32 32 -43 0 -51 -14 -3 -25 -10 -25 -16 0 -5 6 -6 13 -2 7 5 7 1 -3 -12 -8
-10 -16 -21 -17 -23 -2 -2 -1 20 0 50 2 30 -1 65 -5 78 -6 16 -5 27 3 32 9 5
8 12 -5 25 -12 12 -15 25 -11 43 4 14 8 31 9 36 1 6 6 16 10 24 7 11 4 13 -12
9 -17 -5 -22 -2 -22 13 0 14 7 19 28 18 17 -1 20 -3 9 -6z m52 -335 c1 -5 -8
-8 -19 -8 -23 0 -26 14 -7 34 10 12 13 11 19 -3 4 -9 7 -19 7 -23z m-259 -609
c0 -6 -4 -7 -10 -4 -5 3 -10 11 -10 16 0 6 5 7 10 4 6 -3 10 -11 10 -16z m5
-65 c-1 -14 1 -45 5 -69 4 -29 3 -42 -3 -38 -7 4 -7 -1 -2 -13 14 -35 23 -94
14 -100 -5 -3 -9 -10 -9 -15 0 -6 4 -8 9 -4 5 3 13 0 17 -6 4 -7 3 -9 -4 -5
-13 8 -28 -14 -16 -23 5 -3 10 -28 11 -56 7 -148 7 -243 2 -240 -3 2 -6 -35
-6 -83 -1 -48 -1 -94 -2 -102 -1 -27 5 -66 14 -80 5 -9 4 -11 -3 -6 -7 4 -12
1 -12 -8 0 -8 -3 -22 -7 -32 -4 -12 -3 -15 5 -10 17 10 -3 -35 -44 -100 -29
-46 -169 -194 -184 -194 -3 0 -5 12 -4 28 1 15 2 40 3 55 0 16 4 26 9 23 4 -2
8 14 9 37 1 59 11 146 18 158 4 5 0 9 -7 9 -8 0 -9 3 -3 8 6 4 11 21 11 37 2
41 7 57 22 73 15 17 16 42 1 42 -8 0 -8 4 0 14 6 7 9 20 5 29 -3 8 -1 24 5 35
7 13 7 22 -1 30 -9 9 -8 12 5 12 9 0 17 5 17 11 0 5 -5 7 -11 3 -7 -4 -7 1 1
16 7 13 10 38 7 57 -4 22 -2 36 6 39 8 3 11 19 9 46 -3 22 0 38 4 35 5 -3 9
19 8 48 0 34 3 52 10 49 7 -3 11 20 12 67 1 54 5 75 17 84 13 9 14 14 4 25
-10 10 -7 12 13 7 22 -5 23 -4 8 7 -19 14 -18 43 3 57 12 8 12 10 -1 19 -10 6
-11 10 -2 10 6 0 12 9 12 20 0 11 6 20 13 20 7 0 12 -11 12 -26z m892 -150
c-3 -3 -12 -4 -19 -1 -8 3 -5 6 6 6 11 1 17 -2 13 -5z m-1047 -584 c0 -5 -2
-10 -4 -10 -3 0 -8 5 -11 10 -3 6 -1 10 4 10 6 0 11 -4 11 -10z m120 -2080
c124 -10 237 -23 251 -29 15 -5 29 -7 32 -4 3 3 21 -4 40 -16 19 -11 39 -21
46 -21 18 0 91 -34 91 -42 0 -5 7 -8 15 -8 21 0 85 -42 112 -74 74 -86 115
-192 116 -301 2 -105 -7 -138 -33 -130 -14 4 -20 2 -20 -8 0 -8 -7 -17 -14
-20 -11 -4 -13 -1 -9 11 4 9 -7 2 -25 -16 -18 -18 -36 -30 -41 -27 -5 3 -12 1
-16 -5 -4 -6 -11 -8 -16 -4 -6 3 -17 -2 -24 -12 -9 -12 -14 -14 -15 -6 0 14
-49 9 -59 -6 -10 -15 -60 -20 -65 -7 -6 16 -66 25 -66 11 0 -6 -5 -3 -11 7 -6
9 -14 15 -20 12 -5 -4 -9 2 -10 12 0 10 -3 13 -5 6 -3 -7 -12 -9 -20 -6 -7 3
-11 9 -8 14 3 5 -1 6 -9 3 -8 -3 -19 2 -26 10 -7 8 -18 13 -26 10 -7 -3 -24 6
-38 20 -15 14 -33 26 -41 26 -8 0 -18 5 -21 10 -3 6 -18 10 -32 10 -21 0 -24
2 -13 15 11 13 8 15 -14 15 -14 0 -25 3 -25 8 3 18 -3 46 -7 35 -8 -18 -54 6
-54 29 0 20 -15 24 -25 7 -4 -6 -14 -8 -23 -4 -8 3 -20 0 -25 -7 -6 -9 -7 -8
-3 5 3 9 1 17 -5 17 -6 0 -8 4 -5 8 2 4 -5 9 -17 9 -11 1 -25 9 -30 18 -5 9
-20 20 -33 25 -14 6 -24 18 -24 29 0 13 -5 18 -13 15 -8 -3 -20 2 -27 11 -7 8
-19 15 -26 15 -8 0 -14 4 -14 9 0 5 -10 11 -21 14 -17 5 -20 11 -15 31 5 21 3
24 -10 19 -13 -5 -15 -2 -9 16 4 14 2 23 -9 27 -19 7 -21 35 -4 52 7 7 9 12 4
12 -4 0 1 14 11 30 9 17 22 30 28 30 5 0 3 5 -5 11 -11 8 -12 12 -2 16 6 2 10
9 7 13 -3 5 4 15 15 23 11 7 17 17 14 20 -4 3 7 9 22 12 16 4 34 8 39 9 21 6
68 4 285 -14z m-6770 -70 c0 -5 -2 -10 -4 -10 -3 0 -8 5 -11 10 -3 6 -1 10 4
10 6 0 11 -4 11 -10z m9192 -183 c-9 -20 -23 -38 -30 -41 -7 -3 -10 -1 -7 4 3
6 1 10 -5 10 -6 0 -8 5 -4 11 5 8 8 8 13 0 4 -7 14 4 25 25 9 20 19 35 21 32
2 -2 -3 -20 -13 -41z m-35 -269 c-3 -8 -6 -5 -6 6 -1 11 2 17 5 13 3 -3 4 -12
1 -19z m-1405 -2774 c56 -101 80 -162 93 -241 5 -31 12 -43 23 -43 14 0 14 -2
3 -9 -7 -5 -11 -13 -7 -19 4 -6 -2 -8 -14 -5 -11 3 -20 11 -20 18 0 7 -7 19
-16 26 -21 17 -152 192 -170 227 -13 25 -11 29 23 64 21 21 42 37 48 35 5 -2
22 -26 37 -53z m-1092 -761 c0 -9 3 -13 7 -10 9 10 57 -131 78 -233 2 -8 9
-37 15 -65 7 -27 14 -60 16 -72 3 -13 6 -33 9 -45 2 -13 7 -43 11 -68 3 -25
10 -56 15 -68 5 -13 7 -28 3 -33 -3 -5 -2 -9 3 -9 4 0 9 -15 10 -34 1 -29 14
-99 75 -411 7 -33 13 -64 14 -70 0 -5 2 -12 3 -15 1 -3 4 -21 7 -40 2 -19 11
-67 19 -107 8 -40 15 -83 15 -97 0 -14 4 -27 9 -30 7 -5 24 -109 23 -148 -1
-10 3 -18 9 -18 5 0 9 -15 9 -32 0 -18 5 -51 10 -73 5 -22 12 -55 15 -74 3
-19 8 -38 10 -41 3 -4 7 -25 10 -46 3 -22 8 -50 11 -64 9 -37 13 -63 18 -101
3 -19 5 -34 6 -34 1 0 3 -8 5 -19 2 -10 8 -39 14 -65 6 -25 13 -62 15 -82 3
-20 8 -42 10 -50 3 -8 8 -25 10 -39 4 -23 19 -93 30 -146 2 -12 7 -39 10 -60
3 -22 10 -59 16 -84 5 -25 17 -79 26 -120 9 -41 22 -109 29 -150 16 -91 44
-230 52 -250 3 -8 7 -22 8 -30 13 -97 18 -127 25 -140 4 -8 11 -37 14 -65 4
-27 8 -57 10 -65 8 -47 18 -99 26 -130 7 -30 17 -86 34 -190 5 -30 43 -243 51
-285 6 -32 23 -131 30 -180 3 -16 7 -41 10 -55 2 -14 7 -50 10 -80 3 -30 10
-80 15 -110 5 -30 12 -73 16 -95 3 -22 8 -53 9 -70 2 -16 8 -70 13 -120 5 -49
12 -97 15 -105 4 -8 9 -64 11 -123 3 -59 7 -111 10 -116 7 -10 19 -271 16
-356 -1 -38 -2 -89 -3 -112 -1 -31 -6 -43 -17 -43 -13 0 -13 -1 0 -10 13 -9
13 -12 -1 -23 -9 -6 -18 -19 -22 -27 -4 -12 -6 -11 -6 3 -1 9 -6 17 -12 17 -6
0 -9 7 -5 15 3 8 1 15 -4 15 -4 0 -7 16 -4 35 2 19 0 35 -5 35 -5 0 -10 8 -9
18 0 29 -14 126 -20 136 -3 6 -6 19 -7 30 -1 12 -10 64 -18 116 -9 52 -19 111
-21 130 -3 19 -14 89 -26 155 -24 137 -27 157 -44 275 -5 32 -12 75 -36 220
-5 30 -13 82 -19 115 -5 33 -24 139 -41 235 -18 96 -33 182 -34 190 -2 8 -6
33 -10 55 -4 22 -16 92 -27 155 -11 63 -33 187 -49 275 -17 88 -37 198 -45
245 -8 47 -22 119 -30 160 -9 41 -17 91 -20 111 -3 19 -16 89 -29 155 -14 65
-28 135 -31 154 -3 19 -9 61 -14 94 -5 32 -14 79 -19 105 -6 25 -15 71 -20
101 -30 156 -46 245 -62 340 -10 58 -26 146 -35 195 -9 50 -19 102 -21 117
-10 76 -85 490 -104 578 -5 25 -19 104 -30 175 -11 72 -27 164 -35 205 -8 41
-17 93 -20 115 -3 22 -7 49 -9 60 -2 11 -6 43 -10 70 -4 28 -9 64 -11 80 -3
17 -6 39 -9 50 -9 49 -17 105 -20 146 -2 24 -7 56 -11 72 -5 19 -3 27 5 27 9
0 9 4 -1 16 -11 14 -9 19 11 35 31 23 40 24 40 2z"/>
<path d="M29630 19893 c-61 -6 -230 -42 -303 -64 -61 -18 -68 -23 -52 -32 11
-6 33 -13 50 -17 16 -4 29 -12 28 -18 -2 -7 2 -12 8 -12 6 0 9 -7 5 -15 -3 -8
0 -15 6 -15 6 0 3 -9 -7 -20 -16 -18 -17 -24 -5 -61 8 -22 18 -43 23 -46 6 -4
8 1 4 11 -6 14 -3 17 9 12 8 -3 20 -6 25 -6 6 0 7 -5 4 -10 -4 -6 -10 -8 -15
-5 -4 3 -10 -1 -13 -9 -7 -18 25 -10 50 13 10 10 27 23 38 30 15 10 16 11 3 7
-10 -3 -18 -1 -18 4 0 6 9 10 19 10 11 0 23 9 26 20 3 11 10 20 15 20 11 0
120 108 120 120 0 5 9 12 21 15 13 4 18 12 15 22 -4 11 -2 13 9 9 9 -3 15 0
15 8 0 8 12 19 28 24 24 9 22 10 -23 10 -27 -1 -66 -3 -85 -5z"/>
<path d="M26913 19868 c2 -7 9 -12 15 -11 6 2 9 -3 6 -11 -3 -7 2 -19 11 -26
8 -7 15 -19 15 -26 0 -8 7 -14 15 -14 8 0 15 -3 15 -7 0 -5 11 -13 25 -20 18
-8 25 -8 25 0 0 6 7 2 15 -9 12 -15 16 -16 24 -5 5 8 14 10 21 6 8 -5 11 -3 9
4 -3 7 -8 12 -13 11 -4 -1 -16 9 -27 21 -10 12 -19 19 -19 15 0 -4 -6 -2 -12
4 -18 15 -119 80 -125 80 -2 0 -3 -6 0 -12z"/>
<path d="M27347 19511 c-3 -12 -1 -21 3 -21 15 0 23 21 12 32 -6 6 -11 2 -15
-11z"/>
<path d="M28965 19350 c3 -5 8 -10 11 -10 2 0 4 5 4 10 0 6 -5 10 -11 10 -5 0
-7 -4 -4 -10z"/>
<path d="M29547 19278 c-2 -8 2 -23 10 -33 13 -19 14 -18 7 10 -8 37 -10 39
-17 23z"/>
<path d="M29379 19249 c-11 -7 -8 -9 9 -9 15 0 21 -4 16 -12 -4 -7 -3 -8 4 -4
7 4 12 11 12 16 0 13 -26 19 -41 9z"/>
<path d="M29340 19229 c0 -5 5 -7 10 -4 6 3 10 8 10 11 0 2 -4 4 -10 4 -5 0
-10 -5 -10 -11z"/>
<path d="M29576 19215 c-4 -12 -1 -16 11 -13 18 3 21 20 5 26 -5 1 -12 -4 -16
-13z"/>
<path d="M29717 19211 c-4 -17 -3 -21 5 -13 5 5 8 16 6 23 -3 8 -7 3 -11 -10z"/>
<path d="M29742 19210 c0 -14 2 -19 5 -12 2 6 2 18 0 25 -3 6 -5 1 -5 -13z"/>
<path d="M29816 19222 c-2 -4 4 -8 14 -8 10 0 16 4 14 8 -3 4 -9 8 -14 8 -5 0
-11 -4 -14 -8z"/>
<path d="M27450 19200 c-13 -8 -12 -10 3 -10 9 0 17 5 17 10 0 12 -1 12 -20 0z"/>
<path d="M29020 19196 c0 -2 7 -7 16 -10 8 -3 12 -2 9 4 -6 10 -25 14 -25 6z"/>
<path d="M30000 19189 c0 -5 5 -7 10 -4 6 3 10 8 10 11 0 2 -4 4 -10 4 -5 0
-10 -5 -10 -11z"/>
<path d="M29124 19179 c-9 -16 2 -22 21 -11 15 8 16 10 1 15 -8 3 -18 2 -22
-4z"/>
<path d="M29225 19170 c-3 -5 -1 -10 4 -10 6 0 11 5 11 10 0 6 -2 10 -4 10 -3
0 -8 -4 -11 -10z"/>
<path d="M29185 19160 c3 -5 8 -10 11 -10 2 0 4 5 4 10 0 6 -5 10 -11 10 -5 0
-7 -4 -4 -10z"/>
<path d="M30135 19141 c-3 -5 -1 -12 5 -16 5 -3 10 1 10 9 0 18 -6 21 -15 7z"/>
<path d="M27510 19060 c0 -6 7 -10 15 -10 8 0 15 2 15 4 0 2 -7 6 -15 10 -8 3
-15 1 -15 -4z"/>
<path d="M27535 19031 c-3 -5 -1 -12 5 -16 5 -3 10 1 10 9 0 18 -6 21 -15 7z"/>
<path d="M27585 18960 c-3 -5 1 -10 10 -10 9 0 13 5 10 10 -3 6 -8 10 -10 10
-2 0 -7 -4 -10 -10z"/>
<path d="M26131 18891 c-1 -8 -4 -11 -8 -8 -3 4 -13 -2 -20 -13 -8 -11 -19
-18 -24 -15 -5 4 -12 -1 -15 -9 -3 -9 -13 -16 -20 -16 -8 0 -32 -18 -54 -40
-22 -22 -43 -40 -47 -40 -13 0 -42 -37 -36 -44 4 -3 -1 -6 -11 -6 -20 0 -122
-103 -161 -163 -10 -16 -31 -42 -47 -59 -15 -16 -28 -34 -28 -39 0 -6 -11 -22
-25 -37 -14 -15 -25 -32 -25 -39 0 -7 -9 -18 -20 -25 -11 -7 -20 -19 -20 -26
0 -7 -19 -41 -43 -75 -24 -34 -58 -88 -75 -120 -18 -32 -39 -65 -47 -73 -8 -9
-38 -61 -66 -117 -27 -56 -67 -134 -88 -173 -20 -39 -35 -77 -33 -84 3 -7 0
-15 -4 -19 -5 -3 -20 -31 -34 -61 -13 -30 -29 -61 -34 -69 -6 -7 -11 -18 -12
-25 -8 -36 -16 -59 -48 -136 -20 -47 -36 -92 -36 -101 0 -9 -6 -22 -14 -28 -8
-7 -12 -20 -9 -31 3 -10 -2 -33 -11 -51 -20 -40 -20 -55 -1 -62 8 -4 268 -7
577 -7 975 -2 965 -2 971 14 4 11 1 13 -11 9 -13 -5 -15 -4 -7 8 12 16 12 82
0 123 -5 18 -4 27 1 23 6 -3 10 3 10 14 0 10 -4 19 -8 19 -11 0 -10 28 2 32 6
2 4 19 -5 43 -7 23 -10 44 -5 49 5 5 3 24 -5 44 -14 33 -14 34 5 29 11 -3 20
-1 20 4 0 5 -4 9 -8 9 -5 0 -9 16 -10 35 -1 20 -4 40 -7 45 -4 6 0 10 7 10 8
0 6 5 -4 11 -10 5 -18 18 -18 27 0 14 2 15 10 2 13 -21 19 -10 13 23 -3 16
-12 27 -22 27 -14 0 -14 2 -1 10 13 9 13 11 0 20 -10 6 -11 10 -3 10 9 0 10 7
3 24 -5 13 -6 27 -3 30 4 3 1 6 -5 6 -7 0 -12 7 -12 16 0 9 5 12 12 8 7 -4 8
-3 4 5 -4 6 -2 18 4 26 10 12 9 15 -4 15 -9 0 -16 5 -16 10 0 6 5 10 11 10 6
0 9 6 6 13 -2 6 -8 11 -13 10 -5 -1 -10 10 -10 23 -1 15 2 22 10 18 6 -3 4 1
-6 8 -12 10 -14 18 -6 31 6 12 6 22 -1 31 -6 7 -8 16 -4 19 3 4 -2 7 -13 8
-11 0 -13 3 -6 6 6 2 10 9 6 14 -3 5 0 9 5 9 17 0 13 22 -9 50 -24 30 -25 40
-5 40 8 0 15 5 15 11 0 5 -4 7 -10 4 -5 -3 -10 1 -10 9 0 9 -8 16 -17 17 -16
0 -15 1 2 8 19 8 19 8 0 19 -11 6 -14 12 -7 12 9 0 9 5 3 18 -6 9 -13 34 -16
55 -3 20 -10 37 -16 37 -6 0 -7 5 -4 10 4 6 11 8 16 5 5 -4 9 -1 9 4 0 6 -7
11 -16 11 -9 0 -14 5 -12 12 4 10 -25 48 -36 48 -3 0 -18 12 -33 27 -15 14
-21 23 -13 18 8 -4 4 2 -8 15 -15 13 -22 30 -19 41 3 11 1 19 -5 19 -5 0 -7 4
-4 9 9 14 -5 42 -16 35 -6 -4 -5 4 2 16 9 16 9 25 1 33 -6 6 -11 19 -11 29 0
10 -4 26 -9 36 -6 9 -13 34 -16 55 -3 20 -10 37 -16 37 -5 0 -9 8 -7 17 2 10
-7 22 -22 30 -14 7 -19 13 -12 13 7 0 10 5 7 10 -4 6 -10 8 -15 5 -4 -3 -11 1
-13 7 -3 8 -6 4 -7 -7 -2 -17 -3 -16 -10 5 -4 14 -8 19 -9 11z"/>
<path d="M27585 18850 c-3 -5 -1 -10 4 -10 6 0 11 5 11 10 0 6 -2 10 -4 10 -3
0 -8 -4 -11 -10z"/>
<path d="M31740 18489 c0 -5 5 -7 10 -4 6 3 10 8 10 11 0 2 -4 4 -10 4 -5 0
-10 -5 -10 -11z"/>
<path d="M31875 18449 c-4 -6 -5 -12 -2 -15 2 -3 7 2 10 11 7 17 1 20 -8 4z"/>
<path d="M24766 18425 c4 -8 8 -15 10 -15 2 0 4 7 4 15 0 8 -4 15 -10 15 -5 0
-7 -7 -4 -15z"/>
<path d="M24740 18409 c0 -5 5 -7 10 -4 6 3 10 8 10 11 0 2 -4 4 -10 4 -5 0
-10 -5 -10 -11z"/>
<path d="M24700 18324 c-93 -202 -143 -416 -224 -956 l-42 -278 53 0 53 0 0
33 c0 17 7 45 15 61 12 22 12 32 4 42 -9 11 -8 14 1 14 8 0 11 9 8 25 -3 14
-1 22 5 18 5 -3 6 3 2 16 -3 11 -3 26 2 33 11 18 33 116 35 156 1 21 6 32 17
32 11 0 12 3 3 12 -7 7 -8 17 -2 28 5 10 12 39 15 66 11 84 11 89 18 104 3 8
8 29 11 47 2 17 7 36 11 42 3 7 0 8 -9 5 -9 -3 -16 -15 -16 -25 0 -10 -4 -19
-10 -19 -6 0 -6 9 0 26 6 14 7 30 4 36 -5 7 -2 8 6 3 7 -4 16 -2 21 6 11 18
11 32 1 25 -5 -3 -8 13 -8 34 0 22 4 40 8 40 4 0 8 -5 8 -12 0 -6 3 -8 7 -4 5
4 -1 14 -11 22 -18 13 -18 14 -2 14 12 0 15 4 8 16 -5 8 -5 34 -1 57 25 132
29 159 24 168 -4 5 -2 9 3 9 11 0 32 77 32 117 0 63 -17 58 -50 -13z"/>
<path d="M27620 18327 c0 -10 8 -17 18 -17 9 0 13 4 7 8 -5 4 -13 11 -17 16
-5 5 -8 2 -8 -7z"/>
<path d="M26451 18294 c0 -11 3 -14 6 -6 3 7 2 16 -1 19 -3 4 -6 -2 -5 -13z"/>
<path d="M27594 18089 c-3 -6 -2 -15 3 -20 5 -5 9 -1 9 11 0 23 -2 24 -12 9z"/>
<path d="M32561 18054 c0 -11 3 -14 6 -6 3 7 2 16 -1 19 -3 4 -6 -2 -5 -13z"/>
<path d="M27560 17710 c0 -11 4 -20 10 -20 5 0 6 7 3 17 -4 11 -3 14 5 9 7 -4
12 -2 12 3 0 6 -7 11 -15 11 -8 0 -15 -9 -15 -20z"/>
<path d="M27485 17130 c3 -5 8 -10 11 -10 2 0 4 5 4 10 0 6 -5 10 -11 10 -5 0
-7 -4 -4 -10z"/>
<path d="M30775 16340 c3 -5 8 -10 11 -10 2 0 4 5 4 10 0 6 -5 10 -11 10 -5 0
-7 -4 -4 -10z"/>
<path d="M30880 15726 c0 -9 30 -14 35 -6 4 6 -3 10 -14 10 -12 0 -21 -2 -21
-4z"/>
<path d="M30942 15660 c-10 -16 -10 -20 0 -20 10 0 10 -2 1 -8 -10 -6 -10 -12
3 -28 8 -10 12 -13 8 -5 -3 7 0 17 7 22 11 6 11 11 2 20 -6 6 -9 18 -6 25 8
20 0 17 -15 -6z"/>
<path d="M31111 15614 c0 -11 3 -14 6 -6 3 7 2 16 -1 19 -3 4 -6 -2 -5 -13z"/>
<path d="M26921 15234 c0 -11 3 -14 6 -6 3 7 2 16 -1 19 -3 4 -6 -2 -5 -13z"/>
<path d="M26922 15150 c0 -19 2 -27 5 -17 2 9 2 25 0 35 -3 9 -5 1 -5 -18z"/>
<path d="M26905 15070 c-4 -12 -5 -24 -2 -27 3 -2 8 5 12 17 4 12 5 24 2 27
-3 2 -8 -5 -12 -17z"/>
<path d="M26877 14990 c-8 -22 -13 -40 -11 -40 7 0 36 71 31 76 -2 2 -11 -14
-20 -36z"/>
<path d="M26828 14903 c-30 -45 -59 -76 -113 -122 -31 -26 -33 -30 -10 -16 40
23 120 107 140 145 21 41 13 38 -17 -7z"/>
<path d="M29377 13982 c-10 -10 -17 -27 -17 -37 0 -17 3 -16 25 5 24 23 33 50
17 50 -5 0 -16 -8 -25 -18z"/>
<path d="M32991 13055 c0 -31 2 -36 9 -23 6 10 7 25 1 40 -9 20 -10 18 -10
-17z"/>
<path d="M32961 13054 c0 -11 3 -14 6 -6 3 7 2 16 -1 19 -3 4 -6 -2 -5 -13z"/>
<path d="M23020 13040 c0 -5 5 -10 11 -10 5 0 7 5 4 10 -3 6 -8 10 -11 10 -2
0 -4 -4 -4 -10z"/>
<path d="M32956 13002 c2 -3 -4 -11 -14 -18 -9 -7 -14 -15 -11 -18 3 -3 14 1
25 8 13 10 16 17 8 24 -6 5 -9 7 -8 4z"/>
<path d="M21252 12820 c0 -14 2 -19 5 -12 2 6 2 18 0 25 -3 6 -5 1 -5 -13z"/>
<path d="M21449 12785 c-7 -81 -5 -391 4 -440 5 -33 10 -103 9 -156 l0 -96 36
1 c30 1 37 -3 44 -24 6 -19 7 -15 4 15 -2 22 3 64 12 93 16 52 16 53 -17 153
l-33 100 7 155 c7 148 6 154 -12 154 -12 0 -26 13 -36 33 -13 26 -16 28 -18
12z"/>
<path d="M21255 12709 c-9 -54 -11 -328 -2 -394 5 -33 8 -99 8 -147 l-2 -88
31 0 c22 0 33 -6 40 -22 8 -22 9 -22 9 5 1 16 11 57 23 92 l22 63 -27 109
c-23 92 -27 129 -27 249 0 120 -2 143 -16 148 -9 3 -20 3 -26 0 -6 -4 -14 -1
-18 7 -6 8 -10 1 -15 -22z"/>
<path d="M19446 12605 c-4 -33 -10 -88 -15 -123 -8 -63 3 -147 27 -207 7 -16
18 -43 24 -60 7 -16 16 -33 20 -36 5 -3 10 -16 11 -27 1 -12 4 -22 8 -22 9 0
39 -59 39 -77 0 -7 5 -13 10 -13 6 0 10 -5 10 -10 0 -6 11 -22 25 -36 14 -14
25 -32 25 -40 0 -9 5 -12 12 -8 8 5 9 2 5 -9 -4 -11 -1 -17 6 -17 16 0 67 -52
67 -68 0 -6 11 -14 25 -18 14 -3 23 -10 20 -14 -3 -5 4 -11 15 -15 11 -3 20
-11 20 -16 0 -5 5 -9 11 -9 15 0 39 -26 31 -34 -3 -4 1 -4 10 -1 15 6 12 11
-14 33 -77 65 -180 191 -226 277 -31 58 -97 221 -116 285 -9 30 -21 111 -27
180 -12 153 -15 161 -23 85z"/>
<path d="M20260 12433 c0 -7 -10 -13 -22 -14 -22 0 -22 -1 -3 -8 19 -8 19 -8
-2 -15 -13 -4 -23 -12 -23 -17 0 -5 -7 -26 -17 -47 -9 -20 -15 -41 -14 -46 1
-4 -3 -13 -8 -20 -6 -7 -13 -31 -17 -54 -4 -23 -10 -42 -14 -42 -3 0 -7 -6 -7
-14 0 -19 -31 -84 -45 -92 -7 -5 -8 -3 -3 6 6 9 4 11 -4 6 -7 -5 -10 -14 -7
-22 3 -8 -6 -24 -21 -37 -14 -12 -31 -27 -37 -33 -6 -6 -20 -16 -31 -23 -17
-10 -15 -11 19 -6 145 24 290 199 291 352 0 35 4 63 10 63 6 0 5 3 -1 8 -6 4
-18 21 -27 37 -9 17 -16 24 -17 18z"/>
<path d="M21840 12254 c0 -8 5 -12 10 -9 6 3 10 10 10 16 0 5 -4 9 -10 9 -5 0
-10 -7 -10 -16z"/>
<path d="M21890 12200 c0 -5 5 -10 11 -10 5 0 7 5 4 10 -3 6 -8 10 -11 10 -2
0 -4 -4 -4 -10z"/>
<path d="M21368 11635 c-26 -7 -85 -15 -131 -18 -130 -9 -209 -25 -272 -52
-76 -34 -197 -62 -304 -72 l-86 -7 63 -12 c77 -14 194 -16 287 -5 54 7 75 5
93 -5 45 -29 19 -105 -41 -123 -31 -9 -31 -9 14 -10 96 -2 196 41 340 148 95
70 125 107 117 148 -4 23 -21 25 -80 8z"/>
<path d="M25294 4775 c-9 -37 -1 -40 40 -13 45 29 45 38 1 38 -29 0 -36 -4
-41 -25z"/>
<path d="M25306 4646 c23 -7 65 -16 95 -19 l54 -7 -60 20 c-33 11 -76 19 -95
19 l-35 0 41 -13z"/>
<path d="M25232 4608 c-22 -22 -12 -29 18 -13 17 9 30 18 30 20 0 10 -36 5
-48 -7z"/>
<path d="M25912 4593 c-21 -24 -27 -25 -85 -20 -34 3 -96 8 -137 11 l-75 5 70
-14 c135 -28 255 -16 255 26 0 24 0 24 -28 -8z"/>
<path d="M25120 4439 c-17 -31 -8 -32 41 -4 l44 25 -37 0 c-28 0 -40 -5 -48
-21z"/>
<path d="M25425 4430 l-70 -6 85 -1 c47 -1 96 3 110 7 21 7 19 8 -15 7 -22 0
-71 -3 -110 -7z"/>
<path d="M25705 4400 c6 -11 88 -30 124 -30 21 0 31 5 31 15 0 12 -4 13 -17 4
-13 -8 -34 -7 -80 4 -34 8 -60 11 -58 7z"/>
<path d="M25336 2823 c4 -14 -2 -18 -26 -20 -20 -2 -28 1 -24 9 4 7 3 8 -5 4
-6 -4 -9 -11 -6 -16 3 -5 -3 -13 -12 -19 -14 -8 -15 -13 -5 -19 9 -6 6 -12
-13 -22 -14 -7 -25 -20 -25 -29 0 -11 3 -10 15 5 13 17 14 17 15 2 0 -9 -4
-19 -9 -23 -19 -11 -40 -64 -27 -69 6 -2 3 -5 -8 -5 -15 -1 -16 -4 -6 -16 10
-13 9 -15 -9 -15 -14 0 -21 -7 -22 -20 -2 -28 -3 -33 -12 -47 -4 -6 -1 -14 5
-17 7 -3 3 -3 -9 0 -14 3 -23 1 -23 -6 0 -6 -3 -9 -7 -7 -5 3 -14 -1 -20 -8
-10 -11 -3 -15 41 -20 158 -20 282 88 309 270 6 37 4 41 -26 60 -29 17 -85 45
-92 45 -2 0 -1 -8 1 -17z m34 -13 c0 -5 -2 -10 -4 -10 -3 0 -8 5 -11 10 -3 6
-1 10 4 10 6 0 11 -4 11 -10z"/>
</g>
</svg>
